<!DOCTYPE svg PUBLIC "-//W3C//DTD SVG 1.1//EN" "http://www.w3.org/Graphics/SVG/1.1/DTD/svg11.dtd">
<!-- Uploaded to: SVG Repo, www.svgrepo.com, Transformed by: SVG Repo Mixer Tools -->
<svg fill="#05263d" height="800px" width="800px" version="1.1" id="Layer_1" xmlns="http://www.w3.org/2000/svg" xmlns:xlink="http://www.w3.org/1999/xlink" viewBox="0 0 511.999 511.999" xml:space="preserve">
<g id="SVGRepo_bgCarrier" stroke-width="0"/>
<g id="SVGRepo_tracerCarrier" stroke-linecap="round" stroke-linejoin="round"/>
<g id="SVGRepo_iconCarrier"> <g> <g> <path d="M365.958,244.587c-0.147-0.722-0.361-1.434-0.643-2.111c-0.282-0.687-0.632-1.342-1.039-1.952 c-0.418-0.621-0.88-1.198-1.4-1.717c-0.531-0.519-1.106-0.993-1.727-1.399c-0.61-0.406-1.264-0.757-1.942-1.04 c-0.689-0.282-1.388-0.496-2.111-0.642c-1.456-0.293-2.957-0.293-4.414,0c-0.722,0.147-1.434,0.36-2.111,0.642 c-0.677,0.282-1.343,0.633-1.953,1.04c-0.621,0.405-1.197,0.879-1.716,1.399s-0.993,1.096-1.4,1.717 c-0.406,0.61-0.756,1.264-1.039,1.952c-0.282,0.678-0.497,1.388-0.643,2.111c-0.147,0.724-0.226,1.467-0.226,2.201 s0.079,1.479,0.226,2.212c0.147,0.711,0.361,1.422,0.643,2.111c0.282,0.677,0.632,1.332,1.039,1.942 c0.406,0.621,0.88,1.198,1.4,1.717c0.519,0.519,1.095,0.993,1.716,1.411c0.61,0.405,1.264,0.744,1.953,1.026 c0.677,0.282,1.388,0.508,2.111,0.643c0.722,0.147,1.467,0.226,2.201,0.226c0.745,0,1.479-0.079,2.212-0.226 c0.722-0.135,1.434-0.361,2.111-0.643c0.677-0.282,1.332-0.621,1.942-1.026c0.621-0.418,1.197-0.892,1.727-1.411 c0.519-0.519,0.982-1.096,1.4-1.717c0.406-0.61,0.756-1.264,1.039-1.942c0.282-0.689,0.497-1.4,0.643-2.111 c0.147-0.734,0.214-1.479,0.214-2.212C366.172,246.055,366.104,245.31,365.958,244.587z"/> </g> </g> <g> <g> <path d="M174.5,159.656c-0.135-0.722-0.361-1.434-0.643-2.122c-0.282-0.677-0.632-1.332-1.039-1.942 c-0.406-0.621-0.88-1.197-1.4-1.716c-0.519-0.52-1.095-0.994-1.716-1.411c-0.61-0.406-1.264-0.757-1.942-1.04 c-0.689-0.282-1.4-0.496-2.122-0.642c-1.445-0.294-2.946-0.294-4.402,0c-0.722,0.147-1.434,0.36-2.111,0.642 c-0.689,0.282-1.343,0.633-1.953,1.04c-0.621,0.417-1.197,0.891-1.716,1.411c-0.519,0.519-0.993,1.095-1.4,1.716 c-0.406,0.61-0.756,1.264-1.039,1.942c-0.282,0.689-0.508,1.4-0.643,2.122c-0.147,0.724-0.226,1.469-0.226,2.201 c0,0.734,0.079,1.48,0.226,2.201c0.135,0.722,0.361,1.434,0.643,2.111c0.282,0.689,0.632,1.342,1.039,1.952 c0.406,0.622,0.88,1.198,1.4,1.717c0.519,0.519,1.095,0.993,1.716,1.4c0.61,0.405,1.264,0.756,1.953,1.039 c0.677,0.282,1.388,0.495,2.111,0.642c0.722,0.148,1.467,0.226,2.201,0.226s1.479-0.078,2.201-0.226 c0.722-0.147,1.434-0.36,2.111-0.642c0.689-0.282,1.343-0.633,1.953-1.039c0.621-0.406,1.197-0.88,1.716-1.4 c0.519-0.519,0.993-1.095,1.4-1.717c0.406-0.61,0.756-1.263,1.039-1.952c0.282-0.678,0.508-1.388,0.643-2.111 c0.147-0.722,0.226-1.467,0.226-2.201C174.726,161.124,174.647,160.378,174.5,159.656z"/> </g> </g> <g> <g> <path d="M397.666,0H198.431h-84.096c-6.234,0-11.288,5.055-11.288,11.288v191.898v87.21v54.659 c0,6.233,5.054,11.288,11.288,11.288h49.777c21.638,0,41.382,10.531,52.814,28.168c3.786,5.843,5.706,11.057,5.706,15.5 c0,13.849-4.036,23.538-7.938,32.907c-2.9,6.965-5.9,14.167-6.869,22.362c-2.621,22.166,5.59,39.986,23.12,50.176 c7.992,4.645,16.64,6.896,25.055,6.5c0.621,0.028,1.243,0.043,1.866,0.043c7.823-0.001,15.788-2.24,23.189-6.543 c17.53-10.19,25.741-28.009,23.12-50.177c-0.969-8.194-3.969-15.396-6.869-22.361c-3.902-9.37-7.938-19.059-7.938-32.907 c0-4.444,1.92-9.658,5.705-15.5c11.431-17.638,31.175-28.168,52.814-28.168h49.777c6.234,0,11.288-5.055,11.288-11.288v-54.659 v-87.21v-87.352v-0.001V11.288C408.954,5.055,403.9,0,397.666,0z M209.719,22.576h176.659v93.257h0 c0,12.137-9.875,22.012-22.012,22.012s-22.012-9.875-22.012-22.012V86.241c0-5.954-4.626-10.886-10.569-11.264 c-0.244-0.016-0.487-0.024-0.728-0.024c-0.079,0-0.156,0.009-0.235,0.011c-0.121,0.002-0.24,0.01-0.36,0.017 c-0.253,0.014-0.503,0.033-0.752,0.063c-0.085,0.01-0.169,0.024-0.254,0.035c-0.28,0.041-0.557,0.089-0.83,0.15 c-0.056,0.012-0.112,0.026-0.168,0.039c-0.297,0.071-0.589,0.152-0.877,0.246c-0.035,0.011-0.07,0.024-0.105,0.035 c-0.305,0.103-0.603,0.217-0.895,0.344c-0.021,0.009-0.043,0.018-0.063,0.027c-0.3,0.133-0.594,0.278-0.882,0.436 c-0.016,0.009-0.032,0.017-0.047,0.026c-0.288,0.16-0.568,0.333-0.84,0.517c-0.015,0.01-0.031,0.02-0.045,0.03 c-0.269,0.184-0.528,0.378-0.779,0.584c-0.018,0.015-0.037,0.029-0.055,0.044c-0.243,0.201-0.476,0.413-0.702,0.634 c-0.024,0.024-0.05,0.046-0.073,0.07c-0.213,0.213-0.418,0.436-0.614,0.667c-0.032,0.036-0.064,0.071-0.095,0.108 c-0.184,0.221-0.357,0.45-0.524,0.686c-0.036,0.051-0.075,0.099-0.111,0.151c-0.155,0.226-0.297,0.459-0.436,0.696 c-0.038,0.067-0.081,0.13-0.119,0.198c-0.126,0.227-0.24,0.463-0.351,0.7c-0.038,0.082-0.082,0.163-0.119,0.246 c-0.102,0.231-0.188,0.47-0.274,0.709c-0.034,0.095-0.075,0.186-0.106,0.282c-0.081,0.247-0.147,0.501-0.212,0.756 c-0.024,0.093-0.054,0.183-0.076,0.277c-0.079,0.35-0.143,0.707-0.19,1.069c-1.401,10.931-10.782,19.174-21.821,19.174 s-20.42-8.244-21.821-19.174c-0.757-5.906-5.987-10.22-11.916-9.83c-5.943,0.379-10.569,5.31-10.569,11.264v29.592 c0,12.137-9.875,22.012-22.012,22.012s-22.012-9.875-22.012-22.012V22.576z M125.623,258.079h196.194 c6.234,0,11.288-5.055,11.288-11.288s-5.054-11.288-11.288-11.288H125.623v-21.029h260.755v64.633H125.623V258.079z M386.379,333.767h-0.001h-38.489c-29.323,0-56.148,14.38-71.76,38.466c-6.195,9.56-9.336,18.905-9.336,27.778 c0,18.362,5.363,31.24,9.673,41.588c2.516,6.044,4.69,11.262,5.291,16.332c1.542,13.042-2.512,22.464-12.047,28.008 c-4.399,2.558-8.772,3.716-12.99,3.449c-0.239-0.016-0.479-0.024-0.719-0.024s-0.48,0.008-0.719,0.024 c-4.221,0.275-8.59-0.891-12.99-3.449c-9.535-5.542-13.589-14.966-12.047-28.007c0.599-5.071,2.773-10.289,5.291-16.333 c4.309-10.348,9.673-23.225,9.673-41.588c0-8.872-3.141-18.219-9.336-27.778c-15.61-24.087-42.437-38.466-71.758-38.466h-38.489 v-32.083h260.755V333.767z M386.38,191.898H125.625V22.576h26.525v106.209c0,6.233,5.054,11.288,11.288,11.288 c6.234,0,11.288-5.055,11.288-11.288V22.576h12.417v93.257v0.001c0,23.818,18.772,43.333,42.297,44.529 c0.759,0.038,1.523,0.059,2.292,0.059c17.588,0,32.821-10.242,40.073-25.069v26.203c0,6.233,5.054,11.288,11.288,11.288 c6.234,0,11.288-5.055,11.288-11.288v-35.167c0.237,0.019,0.471,0.055,0.709,0.071c0.979,0.065,1.966,0.098,2.96,0.098 s1.98-0.033,2.96-0.098c6.853-0.455,13.328-2.478,19.037-5.729c2.445,22.292,21.389,39.691,44.322,39.691 c0.905,0,1.803-0.035,2.696-0.089c0.27-0.016,0.538-0.041,0.807-0.061c0.641-0.05,1.279-0.113,1.913-0.19 c0.279-0.034,0.559-0.068,0.836-0.106c0.717-0.102,1.428-0.22,2.133-0.354c0.156-0.029,0.315-0.053,0.47-0.084 c0.852-0.173,1.695-0.372,2.53-0.593c0.224-0.059,0.444-0.128,0.667-0.19c0.621-0.175,1.237-0.36,1.847-0.561 c0.264-0.087,0.528-0.176,0.79-0.269c0.612-0.213,1.217-0.443,1.816-0.682c0.203-0.081,0.409-0.157,0.61-0.242 c0.786-0.327,1.561-0.675,2.323-1.046c0.15-0.073,0.295-0.154,0.444-0.228c0.615-0.308,1.224-0.629,1.823-0.964 c0.102-0.056,0.208-0.106,0.308-0.163V191.898z"/> </g> </g> </g>
</svg>